<?xml version="1.0" encoding="UTF-8"?>
<svg width="36px" height="40px" viewBox="0 0 36 40" version="1.1" xmlns="http://www.w3.org/2000/svg" xmlns:xlink="http://www.w3.org/1999/xlink">
    <!-- Generator: Sketch 50.2 (55047) - http://www.bohemiancoding.com/sketch -->
    <title>Shape</title>
    <desc>Created with Sketch.</desc>
    <defs></defs>
    <g id="TSMC-PM/QA-APP_batch-1,-2" stroke="none" stroke-width="1" fill="none" fill-rule="evenodd">
        <g id="2_查詢清單頁面(功能首頁)_5_展開Menu" transform="translate(-44.000000, -244.000000)" fill="#FFFFFF">
            <g id="side-menu" transform="translate(0.000000, 32.000000)">
                <path d="M67.64,216 C66.8,213.68 64.6,212 62,212 C59.4,212 57.2,213.68 56.36,216 L48,216 C45.8,216 44,217.8 44,220 L44,248 C44,250.2 45.8,252 48,252 L76,252 C78.2,252 80,250.2 80,248 L80,220 C80,217.8 78.2,216 76,216 L67.64,216 Z M62,216 C63.65,216 65,217.35 65,219 C65,220.65 63.65,222 62,222 C60.35,222 59,220.65 59,219 C59,217.35 60.35,216 62,216 L62,216 Z M66,244 L52,244 L52,240 L66,240 L66,244 L66,244 Z M72,236 L52,236 L52,232 L72,232 L72,236 L72,236 Z M72,229 L52,229 L52,225 L72,225 L72,229 L72,229 Z" id="Shape"></path>
            </g>
        </g>
    </g>
</svg>