<?xml version="1.0" encoding="UTF-8"?>
<svg width="24px" height="24px" viewBox="0 0 24 24" version="1.1" xmlns="http://www.w3.org/2000/svg" xmlns:xlink="http://www.w3.org/1999/xlink">
    <!-- Generator: Sketch 50.2 (55047) - http://www.bohemiancoding.com/sketch -->
    <title>ic_clear copy 4</title>
    <desc>Created with Sketch.</desc>
    <defs></defs>
    <g id="TSMC-PM/QA-APP_batch-1,-2" stroke="none" stroke-width="1" fill="none" fill-rule="evenodd">
        <g id="3.執行回報作業---F2.材料回報---維護" transform="translate(-708.000000, -453.000000)">
            <g id="ic_clear-copy-4" transform="translate(708.000000, 453.000000)">
                <path d="M2,0 L22,0 C23.1045695,-2.02906125e-16 24,0.8954305 24,2 L24,22 C24,23.1045695 23.1045695,24 22,24 L2,24 C0.8954305,24 1.3527075e-16,23.1045695 0,22 L0,2 C-1.3527075e-16,0.8954305 0.8954305,2.02906125e-16 2,0 Z" id="Bounds" fill="#F04C32"></path>
                <polygon id="Shape" fill="#FFFFFF" points="19 6.41 17.59 5 12 10.59 6.41 5 5 6.41 10.59 12 5 17.59 6.41 19 12 13.41 17.59 19 19 17.59 13.41 12"></polygon>
            </g>
        </g>
    </g>
</svg>