<?xml version="1.0" encoding="UTF-8"?>
<svg width="39px" height="28px" viewBox="0 0 39 28" version="1.1" xmlns="http://www.w3.org/2000/svg" xmlns:xlink="http://www.w3.org/1999/xlink">
    <!-- Generator: Sketch 50.2 (55047) - http://www.bohemiancoding.com/sketch -->
    <title>Combined Shape</title>
    <desc>Created with Sketch.</desc>
    <defs>
        <path d="M8,12 L9.07692308,12 C9.62920783,12 10.0769231,12.4477153 10.0769231,13 L10.0769231,31 C10.0769231,31.5522847 9.62920783,32 9.07692308,32 L8,32 C7.44771525,32 7,31.5522847 7,31 L7,13 C7,12.4477153 7.44771525,12 8,12 Z M19.5384615,12 L20.6153846,12 C21.1676694,12 21.6153846,12.4477153 21.6153846,13 L21.6153846,24.8461538 C21.6153846,25.3984386 21.1676694,25.8461538 20.6153846,25.8461538 L19.5384615,25.8461538 C18.9861768,25.8461538 18.5384615,25.3984386 18.5384615,24.8461538 L18.5384615,13 C18.5384615,12.4477153 18.9861768,12 19.5384615,12 Z M30.3076923,12 L31.3846154,12 C31.9369001,12 32.3846154,12.4477153 32.3846154,13 L32.3846154,24.8461538 C32.3846154,25.3984386 31.9369001,25.8461538 31.3846154,25.8461538 L30.3076923,25.8461538 C29.7554076,25.8461538 29.3076923,25.3984386 29.3076923,24.8461538 L29.3076923,13 C29.3076923,12.4477153 29.7554076,12 30.3076923,12 Z M13.3846154,12 L14.4615385,12 C15.0138232,12 15.4615385,12.4477153 15.4615385,13 L15.4615385,24.8461538 C15.4615385,25.3984386 15.0138232,25.8461538 14.4615385,25.8461538 L13.3846154,25.8461538 C12.8323306,25.8461538 12.3846154,25.3984386 12.3846154,24.8461538 L12.3846154,13 C12.3846154,12.4477153 12.8323306,12 13.3846154,12 Z M13.3846154,28.1538462 L14.4615385,28.1538462 C15.0138232,28.1538462 15.4615385,28.6015614 15.4615385,29.1538462 L15.4615385,31 C15.4615385,31.5522847 15.0138232,32 14.4615385,32 L13.3846154,32 C12.8323306,32 12.3846154,31.5522847 12.3846154,31 L12.3846154,29.1538462 C12.3846154,28.6015614 12.8323306,28.1538462 13.3846154,28.1538462 Z M19.5384615,28.1538462 L20.6153846,28.1538462 C21.1676694,28.1538462 21.6153846,28.6015614 21.6153846,29.1538462 L21.6153846,31 C21.6153846,31.5522847 21.1676694,32 20.6153846,32 L19.5384615,32 C18.9861768,32 18.5384615,31.5522847 18.5384615,31 L18.5384615,29.1538462 C18.5384615,28.6015614 18.9861768,28.1538462 19.5384615,28.1538462 Z M30.3076923,28.1538462 L31.3846154,28.1538462 C31.9369001,28.1538462 32.3846154,28.6015614 32.3846154,29.1538462 L32.3846154,31 C32.3846154,31.5522847 31.9369001,32 31.3846154,32 L30.3076923,32 C29.7554076,32 29.3076923,31.5522847 29.3076923,31 L29.3076923,29.1538462 C29.3076923,28.6015614 29.7554076,28.1538462 30.3076923,28.1538462 Z M24.9230769,12 L26,12 C26.5522847,12 27,12.4477153 27,13 L27,31 C27,31.5522847 26.5522847,32 26,32 L24.9230769,32 C24.3707922,32 23.9230769,31.5522847 23.9230769,31 L23.9230769,13 C23.9230769,12.4477153 24.3707922,12 24.9230769,12 Z M35.6923077,12 L36.7692308,12 C37.3215155,12 37.7692308,12.4477153 37.7692308,13 L37.7692308,31 C37.7692308,31.5522847 37.3215155,32 36.7692308,32 L35.6923077,32 C35.1400229,32 34.6923077,31.5522847 34.6923077,31 L34.6923077,13 C34.6923077,12.4477153 35.1400229,12 35.6923077,12 Z" id="path-1"></path>
        <filter x="-22.8%" y="-25.0%" width="145.5%" height="170.0%" filterUnits="objectBoundingBox" id="filter-2">
            <feOffset dx="0" dy="2" in="SourceAlpha" result="shadowOffsetOuter1"></feOffset>
            <feGaussianBlur stdDeviation="2" in="shadowOffsetOuter1" result="shadowBlurOuter1"></feGaussianBlur>
            <feColorMatrix values="0 0 0 0 0.984313725   0 0 0 0 0.721568627   0 0 0 0 0.690196078  0 0 0 0.643993433 0" type="matrix" in="shadowBlurOuter1"></feColorMatrix>
        </filter>
    </defs>
    <g id="Symbols" stroke="none" stroke-width="1" fill="none" fill-rule="evenodd">
        <g id="Icon/Scan" transform="translate(-3.000000, -10.000000)">
            <g id="Combined-Shape">
                <use fill="black" fill-opacity="1" filter="url(#filter-2)" xlink:href="#path-1"></use>
                <use fill="#F04C32" fill-rule="evenodd" xlink:href="#path-1"></use>
            </g>
        </g>
    </g>
</svg>