<?xml version="1.0" encoding="UTF-8"?>
<svg width="44px" height="44px" viewBox="0 0 44 44" version="1.1" xmlns="http://www.w3.org/2000/svg" xmlns:xlink="http://www.w3.org/1999/xlink">
    <!-- Generator: Sketch 50.2 (55047) - http://www.bohemiancoding.com/sketch -->
    <title>spinner-of-dots</title>
    <desc>Created with Sketch.</desc>
    <defs></defs>
    <g id="Symbols" stroke="none" stroke-width="1" fill="none" fill-rule="evenodd">
        <g id="Card/Toast/Loading" transform="translate(-53.000000, -48.000000)" fill="#FFFFFF">
            <g id="spinner-of-dots" transform="translate(53.000000, 48.000000)">
                <path d="M9.99409901,31.0307925 C8.85924752,31.0307925 7.89429703,31.4085283 7.09794059,32.1673208 C6.30332673,32.9244528 5.90689109,33.8438868 5.90689109,34.9268679 C5.90689109,36.0102642 6.30332673,36.9296981 7.09794059,37.6868302 C7.89429703,38.4439623 8.85924752,38.8233585 9.99409901,38.8233585 C11.112396,38.8233585 12.0721188,38.4439623 12.8771881,37.6868302 C13.6818218,36.9296981 14.0834851,36.0102642 14.0834851,34.9268679 C14.0834851,33.8438868 13.6818218,32.9244528 12.8771881,32.1673208 C12.0721188,31.4101887 11.112396,31.0307925 9.99409901,31.0307925 Z" id="Fill-1"></path>
                <path d="M9.08708911,22.8065283 C9.08708911,21.6147925 8.64142574,20.596566 7.75140594,19.7485283 C6.86312871,18.9004906 5.79275248,18.4775094 4.54376238,18.4775094 C3.29433663,18.4775094 2.2239604,18.9004906 1.33394059,19.7485283 C0.444356436,20.596566 0,21.6147925 0,22.8065283 C0,23.9966038 0.444356436,25.0152453 1.33394059,25.863283 C2.2239604,26.7113208 3.29433663,27.1343019 4.54376238,27.1343019 C5.79275248,27.1343019 6.86312871,26.7113208 7.75140594,25.863283 C8.64142574,25.0152453 9.08708911,23.9966038 9.08708911,22.8065283 Z" id="Fill-2"></path>
                <path d="M35.4369901,12.8492453 C36.0612673,12.8492453 36.595802,12.6383774 37.0414653,12.2137358 C37.4858218,11.7903396 37.7088713,11.2797736 37.7088713,10.6845283 C37.7088713,10.0896981 37.4858218,9.58037736 37.0414653,9.15698113 C36.595802,8.73233962 36.0612673,8.51981132 35.4369901,8.51981132 C34.8122772,8.51981132 34.2764356,8.73233962 33.8320792,9.15698113 C33.3881584,9.58037736 33.1651089,10.0896981 33.1651089,10.6845283 C33.1651089,11.281434 33.3881584,11.7903396 33.8320792,12.2137358 C34.2764356,12.6383774 34.8122772,12.8492453 35.4369901,12.8492453 Z" id="Fill-3"></path>
                <path d="M9.99584158,5.92381132 C8.61267327,5.92381132 7.43469307,6.38788679 6.45972277,7.31686792 C5.48475248,8.24584906 4.99813861,9.36784906 4.99813861,10.6845283 C4.99813861,12.0028679 5.48475248,13.1248679 6.45972277,14.0538491 C7.43469307,14.9832453 8.6139802,15.4469057 9.99584158,15.4469057 C11.377703,15.4469057 12.5552475,14.9832453 13.5306535,14.0538491 C14.5056238,13.1248679 14.9922376,12.0012075 14.9922376,10.6845283 C14.9922376,9.36784906 14.5056238,8.24584906 13.5306535,7.31686792 C12.5552475,6.38788679 11.377703,5.92381132 9.99584158,5.92381132 Z" id="Fill-4"></path>
                <path d="M42.8189703,20.9664151 C42.2896634,20.4604151 41.6466535,20.2088679 40.8890693,20.2088679 C40.1319208,20.2088679 39.4871683,20.4604151 38.9578614,20.9664151 C38.4285545,21.4707547 38.1632475,22.0850943 38.1632475,22.8065283 C38.1632475,23.5283774 38.4285545,24.1410566 38.9578614,24.6453962 C39.4871683,25.1513962 40.1319208,25.4025283 40.8890693,25.4025283 C41.6466535,25.4025283 42.2896634,25.1513962 42.8189703,24.6453962 C43.3500198,24.1410566 43.6135842,23.5283774 43.6135842,22.8065283 C43.6135842,22.0850943 43.3500198,21.4707547 42.8189703,20.9664151 Z" id="Fill-5"></path>
                <path d="M35.4369901,31.8966792 C34.565703,31.8966792 33.8168317,32.1934717 33.1921188,32.7883019 C32.5678416,33.3835472 32.2563564,34.0966792 32.2563564,34.9268679 C32.2563564,35.7570566 32.5678416,36.4689434 33.1921188,37.0641887 C33.8185743,37.659434 34.565703,37.9574717 35.4369901,37.9574717 C36.3065347,37.9574717 37.0554059,37.659434 37.6796832,37.0641887 C38.304396,36.4689434 38.6176238,35.7570566 38.6176238,34.9268679 C38.6176238,34.0966792 38.304396,33.3852075 37.6796832,32.7883019 C37.0554059,32.1934717 36.3065347,31.8966792 35.4369901,31.8966792 Z" id="Fill-6"></path>
                <path d="M22.7166337,36.6569811 C21.7124752,36.6569811 20.8564356,36.9961132 20.1450297,37.6723019 C19.4353663,38.3501509 19.0816238,39.1653962 19.0816238,40.1205283 C19.0816238,41.0773208 19.4353663,41.8929811 20.1450297,42.5691698 C20.8564356,43.2466038 21.7124752,43.5857358 22.7166337,43.5857358 C23.7186139,43.5857358 24.5746535,43.2466038 25.2860594,42.5691698 C25.9957228,41.8929811 26.3512079,41.0773208 26.3512079,40.1205283 C26.3512079,39.1653962 25.9957228,38.3501509 25.2860594,37.6723019 C24.5746535,36.9961132 23.7186139,36.6569811 22.7166337,36.6569811 Z" id="Fill-7"></path>
                <path d="M22.7166337,0.295962264 C21.201901,0.295962264 19.913703,0.800301887 18.8533465,1.81022642 C17.7934257,2.82056604 17.2641188,4.048 17.2641188,5.49086792 C17.2641188,6.93415094 17.7934257,8.15992453 18.8533465,9.17026415 C19.913703,10.1801887 21.201901,10.6845283 22.7166337,10.6845283 C24.2309307,10.6845283 25.5173861,10.1801887 26.5777426,9.17026415 C27.6376634,8.15992453 28.1669703,6.93415094 28.1669703,5.49086792 C28.1669703,4.048 27.6376634,2.82222642 26.5777426,1.81022642 C25.5173861,0.801962264 24.2309307,0.295962264 22.7166337,0.295962264 Z" id="Fill-8"></path>
            </g>
        </g>
    </g>
</svg>