<?xml version="1.0" encoding="UTF-8"?>
<svg width="50px" height="53px" viewBox="0 0 50 53" version="1.1" xmlns="http://www.w3.org/2000/svg" xmlns:xlink="http://www.w3.org/1999/xlink">
    <!-- Generator: Sketch 50.2 (55047) - http://www.bohemiancoding.com/sketch -->
    <title>spinner-of-dots</title>
    <desc>Created with Sketch.</desc>
    <defs></defs>
    <g id="TSMC-PM/QA-APP_batch-1,-2" stroke="none" stroke-width="1" fill="none" fill-rule="evenodd">
        <g id="3.執行回報作業---F1.保養工作單回報_載入中" transform="translate(-359.000000, -474.000000)" fill="#F04C32">
            <g id="spinner-of-dots" transform="translate(359.000000, 474.055556)">
                <path d="M11.3569307,37.0079208 C10.0673267,37.0079208 8.97079208,37.4584158 8.06584158,38.3633663 C7.16287129,39.2663366 6.71237624,40.3628713 6.71237624,41.6544554 C6.71237624,42.9465347 7.16287129,44.0430693 8.06584158,44.9460396 C8.97079208,45.8490099 10.0673267,46.3014851 11.3569307,46.3014851 C12.6277228,46.3014851 13.7183168,45.8490099 14.6331683,44.9460396 C15.5475248,44.0430693 16.0039604,42.9465347 16.0039604,41.6544554 C16.0039604,40.3628713 15.5475248,39.2663366 14.6331683,38.3633663 C13.7183168,37.460396 12.6277228,37.0079208 11.3569307,37.0079208 Z" id="Fill-1"></path>
                <path d="M10.3262376,27.199505 C10.3262376,25.7782178 9.81980198,24.5638614 8.80841584,23.5524752 C7.7990099,22.5410891 6.58267327,22.0366337 5.16336634,22.0366337 C3.74356436,22.0366337 2.52722772,22.5410891 1.51584158,23.5524752 C0.504950495,24.5638614 0,25.7782178 0,27.199505 C0,28.6188119 0.504950495,29.8336634 1.51584158,30.8450495 C2.52722772,31.8564356 3.74356436,32.3608911 5.16336634,32.3608911 C6.58267327,32.3608911 7.7990099,31.8564356 8.80841584,30.8450495 C9.81980198,29.8336634 10.3262376,28.6188119 10.3262376,27.199505 Z" id="Fill-2"></path>
                <path d="M40.2693069,15.3242574 C40.9787129,15.3242574 41.5861386,15.0727723 42.0925743,14.5663366 C42.5975248,14.0613861 42.8509901,13.4524752 42.8509901,12.7425743 C42.8509901,12.0331683 42.5975248,11.4257426 42.0925743,10.9207921 C41.5861386,10.4143564 40.9787129,10.1608911 40.2693069,10.1608911 C39.5594059,10.1608911 38.950495,10.4143564 38.4455446,10.9207921 C37.9410891,11.4257426 37.6876238,12.0331683 37.6876238,12.7425743 C37.6876238,13.4544554 37.9410891,14.0613861 38.4455446,14.5663366 C38.950495,15.0727723 39.5594059,15.3242574 40.2693069,15.3242574 Z" id="Fill-3"></path>
                <path d="M11.3589109,7.06485149 C9.78712871,7.06485149 8.44851485,7.61831683 7.34059406,8.72623762 C6.23267327,9.83415842 5.67970297,11.1722772 5.67970297,12.7425743 C5.67970297,14.3148515 6.23267327,15.6529703 7.34059406,16.7608911 C8.44851485,17.8693069 9.78861386,18.4222772 11.3589109,18.4222772 C12.9292079,18.4222772 14.2673267,17.8693069 15.3757426,16.7608911 C16.4836634,15.6529703 17.0366337,14.3128713 17.0366337,12.7425743 C17.0366337,11.1722772 16.4836634,9.83415842 15.3757426,8.72623762 C14.2673267,7.61831683 12.9292079,7.06485149 11.3589109,7.06485149 Z" id="Fill-4"></path>
                <path d="M48.6579208,25.0049505 C48.0564356,24.4014851 47.3257426,24.1014851 46.4648515,24.1014851 C45.6044554,24.1014851 44.8717822,24.4014851 44.270297,25.0049505 C43.6688119,25.6064356 43.3673267,26.3391089 43.3673267,27.199505 C43.3673267,28.060396 43.6688119,28.7910891 44.270297,29.3925743 C44.8717822,29.9960396 45.6044554,30.2955446 46.4648515,30.2955446 C47.3257426,30.2955446 48.0564356,29.9960396 48.6579208,29.3925743 C49.2613861,28.7910891 49.5608911,28.060396 49.5608911,27.199505 C49.5608911,26.3391089 49.2613861,25.6064356 48.6579208,25.0049505 Z" id="Fill-5"></path>
                <path d="M40.2693069,38.0405941 C39.2792079,38.0405941 38.4282178,38.3945545 37.7183168,39.1039604 C37.0089109,39.8138614 36.6549505,40.6643564 36.6549505,41.6544554 C36.6549505,42.6445545 37.0089109,43.4935644 37.7183168,44.2034653 C38.430198,44.9133663 39.2792079,45.2688119 40.2693069,45.2688119 C41.2574257,45.2688119 42.1084158,44.9133663 42.8178218,44.2034653 C43.5277228,43.4935644 43.8836634,42.6445545 43.8836634,41.6544554 C43.8836634,40.6643564 43.5277228,39.8158416 42.8178218,39.1039604 C42.1084158,38.3945545 41.2574257,38.0405941 40.2693069,38.0405941 Z" id="Fill-6"></path>
                <path d="M25.8143564,43.7178218 C24.6732673,43.7178218 23.700495,44.1222772 22.8920792,44.9287129 C22.0856436,45.7371287 21.6836634,46.7094059 21.6836634,47.8485149 C21.6836634,48.989604 22.0856436,49.9623762 22.8920792,50.7688119 C23.700495,51.5767327 24.6732673,51.9811881 25.8143564,51.9811881 C26.9529703,51.9811881 27.9257426,51.5767327 28.7341584,50.7688119 C29.5405941,49.9623762 29.9445545,48.989604 29.9445545,47.8485149 C29.9445545,46.7094059 29.5405941,45.7371287 28.7341584,44.9287129 C27.9257426,44.1222772 26.9529703,43.7178218 25.8143564,43.7178218 Z" id="Fill-7"></path>
                <path d="M25.8143564,0.352970297 C24.0930693,0.352970297 22.6292079,0.954455446 21.4242574,2.15891089 C20.219802,3.36386139 19.6183168,4.82772277 19.6183168,6.54851485 C19.6183168,8.26980198 20.219802,9.73168317 21.4242574,10.9366337 C22.6292079,12.1410891 24.0930693,12.7425743 25.8143564,12.7425743 C27.5351485,12.7425743 28.9970297,12.1410891 30.2019802,10.9366337 C31.4064356,9.73168317 32.0079208,8.26980198 32.0079208,6.54851485 C32.0079208,4.82772277 31.4064356,3.36584158 30.2019802,2.15891089 C28.9970297,0.956435644 27.5351485,0.352970297 25.8143564,0.352970297 Z" id="Fill-8"></path>
            </g>
        </g>
    </g>
</svg>